<svg width="20" height="24" viewBox="0 0 20 24" fill="none" xmlns="http://www.w3.org/2000/svg">
<path d="M0.783203 20.3545C0.783203 22.6748 1.97559 23.8779 4.27441 23.8779H15.7148C18.0137 23.8779 19.2061 22.6748 19.2061 20.3545V4.14453C19.2061 1.83496 18.0137 0.621094 15.7148 0.621094H4.27441C1.97559 0.621094 0.783203 1.83496 0.783203 4.14453V20.3545ZM2.88867 20.2256V4.27344C2.88867 3.27441 3.4043 2.72656 4.44629 2.72656H15.5322C16.5742 2.72656 17.1006 3.27441 17.1006 4.27344V20.2256C17.1006 21.2246 16.5742 21.7725 15.5322 21.7725H4.44629C3.4043 21.7725 2.88867 21.2246 2.88867 20.2256ZM5.32715 10.9551C5.64941 10.9551 5.84277 10.7939 5.93945 10.4072L6.26172 9.4834H8.16309L8.49609 10.4072C8.59277 10.7832 8.78613 10.9551 9.09766 10.9551C9.47363 10.9551 9.68848 10.7402 9.68848 10.3857C9.68848 10.2891 9.66699 10.1494 9.61328 9.99902L8.1416 5.88477C7.98047 5.40137 7.69043 5.16504 7.19629 5.16504C6.73438 5.16504 6.45508 5.40137 6.2832 5.88477L4.81152 9.99902C4.76855 10.1387 4.73633 10.2891 4.73633 10.3857C4.73633 10.7402 4.97266 10.9551 5.32715 10.9551ZM11.5254 7.02344H14.5654C14.9521 7.02344 15.2422 6.72266 15.2422 6.3252C15.2422 5.94922 14.9521 5.65918 14.5654 5.65918H11.5254C11.1279 5.65918 10.8379 5.94922 10.8379 6.3252C10.8379 6.72266 11.1279 7.02344 11.5254 7.02344ZM6.50879 8.54883L7.1748 6.40039H7.23926L7.92676 8.54883H6.50879ZM11.5254 10.6221H14.5654C14.9521 10.6221 15.2422 10.3213 15.2422 9.93457C15.2422 9.55859 14.9521 9.26855 14.5654 9.26855H11.5254C11.1279 9.26855 10.8379 9.55859 10.8379 9.93457C10.8379 10.3213 11.1279 10.6221 11.5254 10.6221ZM4.72559 19.2051H5.4668L6.82031 17.8301C7.01367 17.6475 7.21777 17.5723 7.43262 17.5723C7.63672 17.5723 7.8623 17.6475 8.05566 17.8301L8.91504 18.6035L11.042 16.7236C11.2676 16.5195 11.5146 16.4229 11.7617 16.4229C12.0195 16.4229 12.2773 16.5088 12.4707 16.7236L14.5225 19.0977H15.2637V14.1562C15.2637 13.2432 14.791 12.7705 13.8779 12.7705H6.12207C5.24121 12.7705 4.72559 13.2432 4.72559 14.1562V19.2051ZM8.1416 16.7236C7.5293 16.7236 7.02441 16.208 7.02441 15.6064C7.02441 14.9941 7.5293 14.4678 8.1416 14.4893C8.75391 14.5107 9.25879 14.9941 9.25879 15.6064C9.25879 16.208 8.75391 16.7236 8.1416 16.7236Z" fill="#8A8A8D"/>
</svg>
