<svg width="25" height="25" viewBox="0 0 25 25" fill="none" xmlns="http://www.w3.org/2000/svg">
<path d="M4.81934 24.8564H20.1553C22.9863 24.8564 24.4971 23.3457 24.4971 20.5527V5.14062C24.4971 2.34766 22.9863 0.849609 20.1553 0.849609H4.81934C2.00098 0.849609 0.490234 2.34766 0.490234 5.14062V20.5527C0.490234 23.3584 2.00098 24.8564 4.81934 24.8564ZM3.39746 20.2354V5.45801C3.39746 4.30273 3.98145 3.75684 5.08594 3.75684H19.9014C20.9805 3.75684 21.5898 4.30273 21.5898 5.45801V20.2354C21.5898 21.1621 21.1963 21.708 20.4727 21.8857C19.3047 19.1055 16.1943 17.2012 12.5 17.2012C8.79297 17.2012 5.68262 19.1055 4.51465 21.8857C3.77832 21.708 3.39746 21.1748 3.39746 20.2354ZM12.4873 15.2334C14.9248 15.2461 16.8037 13.1768 16.8037 10.5107C16.8037 7.99707 14.9121 5.88965 12.4873 5.88965C10.0752 5.88965 8.1709 7.99707 8.18359 10.5107C8.18359 13.1768 10.0625 15.208 12.4873 15.2334Z" fill="#8A8A8D"/>
</svg>
