<svg width="23" height="22" viewBox="0 0 23 22" fill="none" xmlns="http://www.w3.org/2000/svg">
<path opacity="0.9" d="M0.897461 9.28906C0.897461 14.1123 4.81836 18.0332 9.6416 18.0332C11.4355 18.0332 13.0791 17.4854 14.4541 16.5508L19.3955 21.4922C19.6963 21.8037 20.1152 21.9434 20.5342 21.9434C21.4473 21.9434 22.1025 21.2559 22.1025 20.3643C22.1025 19.9346 21.9521 19.5371 21.6621 19.2363L16.7529 14.3164C17.7734 12.9092 18.3857 11.1689 18.3857 9.28906C18.3857 4.46582 14.4648 0.544922 9.6416 0.544922C4.81836 0.544922 0.897461 4.46582 0.897461 9.28906ZM3.1748 9.28906C3.1748 5.72266 6.06445 2.82227 9.6416 2.82227C13.208 2.82227 16.1084 5.72266 16.1084 9.28906C16.1084 12.8555 13.208 15.7559 9.6416 15.7559C6.06445 15.7559 3.1748 12.8555 3.1748 9.28906Z" fill="#8A8A8D"/>
</svg>
