<svg width="19" height="24" viewBox="0 0 19 24" fill="none" xmlns="http://www.w3.org/2000/svg">
<path d="M9.33789 15.5176C9.83594 15.5176 10.2461 15.1074 10.2461 14.6191V4.79492L10.1777 3.34961L10.7734 4.0625L12.1406 5.51758C12.2969 5.69336 12.5215 5.78125 12.7461 5.78125C13.1953 5.78125 13.5664 5.45898 13.5664 5C13.5664 4.75586 13.4688 4.58008 13.3027 4.41406L10.0312 1.25977C9.79688 1.02539 9.57227 0.947266 9.33789 0.947266C9.09375 0.947266 8.87891 1.02539 8.64453 1.25977L5.36328 4.41406C5.19727 4.58008 5.09961 4.75586 5.09961 5C5.09961 5.45898 5.46094 5.78125 5.91016 5.78125C6.13477 5.78125 6.36914 5.69336 6.52539 5.51758L7.89258 4.0625L8.49805 3.33984L8.41992 4.79492V14.6191C8.41992 15.1074 8.83008 15.5176 9.33789 15.5176ZM3.70312 23.3203H14.9531C17.0723 23.3203 18.166 22.2266 18.166 20.1367V10.5371C18.166 8.44727 17.0723 7.35352 14.9531 7.35352H12.3164V9.29688H14.8262C15.7148 9.29688 16.2227 9.76562 16.2227 10.7031V19.9609C16.2227 20.8984 15.7148 21.3672 14.8262 21.3672H3.83008C2.93164 21.3672 2.43359 20.8984 2.43359 19.9609V10.7031C2.43359 9.76562 2.93164 9.29688 3.83008 9.29688H6.36914V7.35352H3.70312C1.59375 7.35352 0.490234 8.4375 0.490234 10.5371V20.1367C0.490234 22.2266 1.59375 23.3203 3.70312 23.3203Z" fill="#3478F6"/>
</svg>
