<svg width="26" height="26" viewBox="0 0 26 26" fill="none" xmlns="http://www.w3.org/2000/svg">
<path d="M18.9082 17.0996L22.6777 13.3301C23.8496 12.168 23.8203 10.7715 22.6289 9.56055L22.0234 8.94531C21.0176 10.2344 18.1367 11.7871 17.5996 11.25C17.5117 11.1621 17.4922 10.9863 17.6191 10.8496C18.7812 9.69727 19.582 8.52539 19.7676 6.68945L14.7578 1.67969C13.6934 0.605469 11.9453 1.07422 11.4375 2.91992C10.7832 5.41992 10.2363 6.91406 9.77734 7.97852L18.9082 17.0996ZM3.69336 23.5254C5.29492 25.1465 7.39453 25.1562 8.97656 23.5742C10.0898 22.4512 11.1836 20.0293 12.0234 18.6621L14.2207 20.8594C15.0312 21.6797 16.0273 21.6797 16.7988 20.8887L17.6191 20.0586C18.4199 19.248 18.4004 18.3105 17.5898 17.4902L9.71875 9.62891C8.89844 8.81836 7.94141 8.79883 7.14062 9.59961L6.33008 10.4102C5.53906 11.2109 5.53906 12.1875 6.34961 12.998L8.54688 15.1855C7.18945 16.0352 4.75781 17.1191 3.64453 18.2324C2.05273 19.8242 2.07227 21.9238 3.69336 23.5254ZM6.4082 22.041C5.77344 22.041 5.26562 21.5234 5.26562 20.8984C5.26562 20.2734 5.77344 19.7559 6.4082 19.7559C7.0332 19.7559 7.54102 20.2734 7.54102 20.8984C7.54102 21.5234 7.0332 22.041 6.4082 22.041Z" fill="#8A8A8D"/>
</svg>
